# xmcd
# 
# Track frame offsets:
#     150
#     58657
#     116608
#     168260
# 
# Disc length: 2924
# 
# Revision: 0
# Processed by: cddbd v1.5.2PL0 Copyright (c) Steve Scherf et al.
# Submitted via: fre:ac v1.0.17
# 
DISCID=2d0b6a04
DTITLE=Go Wild! Mission Wildnis - 03 Die Reise der Schmetterlinge
DYEAR=0
DGENRE=Audiobook
TTITLE0=01 - Das Geheimnis der Regenwürmer (Teil I)
TTITLE1=02 - Das Geheimnis der Regenwürmer (Teil II)
TTITLE2=03 - Die Reise der Schmetterlinge (Teil I)
TTITLE3=04 - Die Reise der Schmetterlinge /Teil II)
EXTD=
EXTT0=
EXTT1=
EXTT2=
EXTT3=
PLAYORDER=
